<?xml version="1.0" encoding="UTF-8" standalone="no"?>
<!DOCTYPE svg PUBLIC "-//W3C//DTD SVG 1.1//EN"
"http://www.w3.org/Graphics/SVG/1.1/DTD/svg11.dtd">
<svg viewBox="0 0 909 1286" version="1.1" xmlns="http://www.w3.org/2000/svg" xmlns:xlink="http://www.w3.org/1999/xlink">
<defs>
<style type="text/css"><![CDATA[
.g1_26{
fill: none;
stroke: #000000;
stroke-width: 0.9166667;
stroke-linecap: butt;
stroke-linejoin: miter;
}
.g2_26{
fill: none;
stroke: #000000;
stroke-width: 1.5277778;
stroke-linecap: butt;
stroke-linejoin: miter;
}
.g3_26{
fill: #000001;
}
]]></style>
</defs>
<path d="M130,452.2l129,0" class="g1_26" />
<path d="M259,452.2l87.7,0" class="g1_26" />
<path d="M509.1,453.2l210.2,0" class="g2_26" />
<path d="M719.3,453.2l17.1,0" class="g2_26" />
<path d="M130,575.8l129,0" class="g1_26" />
<path d="M259,575.8l87.7,0" class="g1_26" />
<path d="M509.1,576.8l191.1,0" class="g2_26" />
<path d="M700.2,576.8l36.2,0" class="g2_26" />
<path d="M130,699.4l129,0" class="g1_26" />
<path d="M259,699.4l87.7,0" class="g1_26" />
<path d="M509.1,700.4l190.9,0" class="g2_26" />
<path d="M700,700.4l36.2,0" class="g2_26" />
<path fill-rule="evenodd" d="M130,83.5l671,0l0,0.8l-671,0l0,-0.8Z" class="g3_26" />
<path fill-rule="evenodd" d="M130,83.5l671,0l0,0.8l-671,0l0,-0.8Z" class="g3_26" />
</svg>