<?xml version="1.0" encoding="UTF-8" standalone="no"?>
<!DOCTYPE svg PUBLIC "-//W3C//DTD SVG 1.1//EN"
"http://www.w3.org/Graphics/SVG/1.1/DTD/svg11.dtd">
<svg viewBox="0 0 909 1286" version="1.1" xmlns="http://www.w3.org/2000/svg" xmlns:xlink="http://www.w3.org/1999/xlink">
<defs>
<style type="text/css"><![CDATA[
.g1_9{
fill: #FFFFFF;
}
.g2_9{
fill: #EAF1DD;
}
.g3_9{
fill: #808000;
}
.g4_9{
fill: #000001;
}
.g5_9{
fill-opacity: 0.4;
}
.g6_9{
fill: none;
stroke: #000000;
stroke-width: 10.694445;
stroke-linecap: butt;
stroke-linejoin: miter;
stroke-miterlimit: 7;
stroke-opacity: 0.4;
}
.g7_9{
fill: #EDEDED;
}
.g8_9{
fill: none;
stroke: #FFFFFF;
stroke-width: 10.694445;
stroke-linecap: butt;
stroke-linejoin: miter;
stroke-miterlimit: 7;
}
]]></style>
</defs>
<path fill-rule="evenodd" d="M130,492l232.8,0l0,-283.4l-232.8,0L130,492Z" class="g1_9" />
<path fill-rule="evenodd" d="M362.8,492L823,492l0,-283.4l-460.2,0l0,283.4Z" class="g1_9" />
<path fill-rule="evenodd" d="M130,596.5l232.8,0l0,-104.5L130,492l0,104.5Z" class="g1_9" />
<path fill-rule="evenodd" d="M362.8,596.5l460.2,0L823,492l-460.2,0l0,104.5Z" class="g2_9" />
<path fill-rule="evenodd" d="M130,659.9l232.8,0l0,-63.4l-232.8,0l0,63.4Z" class="g1_9" />
<path fill-rule="evenodd" d="M130,748.6l232.8,0l0,-88.7l-232.8,0l0,88.7Z" class="g1_9" />
<path fill-rule="evenodd" d="M362.8,748.6l460.2,0l0,-88.7l-460.2,0l0,88.7Z" class="g2_9" />
<path fill-rule="evenodd" d="M130,987.3l232.8,0l0,-238.7l-232.8,0l0,238.7Z" class="g1_9" />
<path fill-rule="evenodd" d="M130,1151.1l232.8,0l0,-163.8l-232.8,0l0,163.8Z" class="g1_9" />
<path fill-rule="evenodd" d="M362.8,1151.1l460.2,0l0,-163.8l-460.2,0l0,163.8Z" class="g2_9" />
<path fill-rule="evenodd" d="M130,208.6l232.8,0l0,1l-232.8,0l0,-1Z" class="g3_9" />
<path fill-rule="evenodd" d="M362.8,208.6l460.2,0l0,1l-460.2,0l0,-1Z" class="g3_9" />
<path fill-rule="evenodd" d="M362.8,492L823,492l0,1l-460.2,0l0,-1Z" class="g3_9" />
<path fill-rule="evenodd" d="M362.8,596.5l460.2,0l0,1l-460.2,0l0,-1Z" class="g3_9" />
<path fill-rule="evenodd" d="M362.8,659.9l460.2,0l0,1l-460.2,0l0,-1Z" class="g3_9" />
<path fill-rule="evenodd" d="M362.8,748.6l460.2,0l0,0.9l-460.2,0l0,-0.9Z" class="g3_9" />
<path fill-rule="evenodd" d="M362.8,987.3l460.2,0l0,1l-460.2,0l0,-1Z" class="g3_9" />
<path fill-rule="evenodd" d="M130,1151.1l232.8,0l0,0.9L130,1152l0,-0.9Z" class="g3_9" />
<path fill-rule="evenodd" d="M362.8,1151.1l460.2,0l0,0.9l-460.2,0l0,-0.9Z" class="g3_9" />
<path fill-rule="evenodd" d="M130,83.5l671,0l0,0.8l-671,0l0,-0.8Z" class="g4_9" />
<path fill-rule="evenodd" d="M130,83.5l671,0l0,0.8l-671,0l0,-0.8Z" class="g4_9" />
<path fill-rule="evenodd" d="M159.8,220.7l194.8,0l0,129.9l-194.8,0l0,-129.9Z" class="g5_9" />
<image preserveAspectRatio="none" x="160" y="221" width="195" height="130" opacity="0.4" xlink:href="img/1.png" />
<path d="M154.5,215.4l205.4,0l0,140.5l-205.4,0l0,-140.5Z" class="g6_9" />
<path fill-rule="evenodd" d="M159.8,218.6l194.8,0l0,129.8l-194.8,0l0,-129.8Z" class="g7_9" />
<image preserveAspectRatio="none" x="160" y="218" width="195" height="130" xlink:href="img/2.png" />
<path d="M154.5,213.2l205.4,0l0,140.6l-205.4,0l0,-140.6Z" class="g8_9" />
</svg>