<?xml version="1.0" encoding="UTF-8" standalone="no"?>
<!DOCTYPE svg PUBLIC "-//W3C//DTD SVG 1.1//EN"
"http://www.w3.org/Graphics/SVG/1.1/DTD/svg11.dtd">
<svg viewBox="0 0 909 1286" version="1.1" xmlns="http://www.w3.org/2000/svg" xmlns:xlink="http://www.w3.org/1999/xlink">
<defs>
<style type="text/css"><![CDATA[
.g1_6{
fill: #EAF1DD;
}
.g2_6{
fill: #D9D9D9;
}
.g3_6{
fill: #808000;
}
.g4_6{
fill: #FFFFFF;
}
.g5_6{
fill: #000001;
}
]]></style>
</defs>
<path fill-rule="evenodd" d="M131.8,289.9l337.8,0l0,-38.3l-337.8,0l0,38.3Z" class="g1_6" />
<path fill-rule="evenodd" d="M469.6,289.9l338,0l0,-38.3l-338,0l0,38.3Z" class="g1_6" />
<path fill-rule="evenodd" d="M131.8,319.2l337.8,0l0,-29.3l-337.8,0l0,29.3Z" class="g2_6" />
<path fill-rule="evenodd" d="M469.6,319.2l338,0l0,-29.3l-338,0l0,29.3Z" class="g2_6" />
<path fill-rule="evenodd" d="M131.8,478l337.8,0l0,-29.4l-337.8,0l0,29.4Z" class="g2_6" />
<path fill-rule="evenodd" d="M469.6,478l338,0l0,-29.4l-338,0l0,29.4Z" class="g2_6" />
<path fill-rule="evenodd" d="M469.6,636.7l338,0l0,-29.3l-338,0l0,29.3Z" class="g2_6" />
<path fill-rule="evenodd" d="M469.6,252l-0.3,0.5l-337,0L131.8,252l-0.3,-0.4l338.6,0l-0.5,0.4Z" class="g3_6" />
<path fill-rule="evenodd" d="M807.6,252l-0.3,0.5l-337.2,0L469.6,252l-0.3,-0.4l338.7,0l-0.4,0.4Z" class="g3_6" />
<path fill-rule="evenodd" d="M469.6,290.4l-0.3,0.4l-337,0l-0.5,-0.4l0.5,-0.5l337,0l0.3,0.5Z" class="g4_6" />
<path fill-rule="evenodd" d="M807.6,290.4l-0.3,0.4l-337.2,0l-0.5,-0.4l0.5,-0.5l337.2,0l0.3,0.5Z" class="g4_6" />
<path fill-rule="evenodd" d="M469.6,319.7l-0.3,0.5l-337,0l-0.5,-0.5l0.5,-0.5l337,0l0.3,0.5Z" class="g4_6" />
<path fill-rule="evenodd" d="M807.6,319.7l-0.3,0.5l-337.2,0l-0.5,-0.5l0.5,-0.5l337.2,0l0.3,0.5Z" class="g4_6" />
<path fill-rule="evenodd" d="M469.6,449.1l-0.3,0.5l-337,0l-0.5,-0.5l0.5,-0.5l337,0l0.3,0.5Z" class="g4_6" />
<path fill-rule="evenodd" d="M807.6,449.1l-0.3,0.5l-337.2,0l-0.5,-0.5l0.5,-0.5l337.2,0l0.3,0.5Z" class="g4_6" />
<path fill-rule="evenodd" d="M469.6,478.4l-0.3,0.5l-337,0l-0.5,-0.5l0.5,-0.4l337,0l0.3,0.4Z" class="g4_6" />
<path fill-rule="evenodd" d="M807.6,478.4l-0.3,0.5l-337.2,0l-0.5,-0.5l0.5,-0.4l337.2,0l0.3,0.4Z" class="g4_6" />
<path fill-rule="evenodd" d="M807.6,607.8l-0.3,0.5l-337.2,0l-0.5,-0.5l0.5,-0.4l337.2,0l0.3,0.4Z" class="g4_6" />
<path fill-rule="evenodd" d="M807.6,637.2l-0.3,0.4l-337.2,0l-0.5,-0.4l0.5,-0.5l337.2,0l0.3,0.5Z" class="g4_6" />
<path fill-rule="evenodd" d="M807.6,741.5L808,742l-338.7,0l0.3,-0.5l0.5,-0.4l337.2,0l0.3,0.4Z" class="g3_6" />
<path fill-rule="evenodd" d="M131.8,252l0.5,0.5l0,37.4l-0.5,0.5l-0.3,0.4l0,-39.2l0.3,0.4Z" class="g3_6" />
<path fill-rule="evenodd" d="M131.8,290.4l0.5,0.4l0,28.4l-0.5,0.5l-0.3,0.5l0,-30.3l0.3,0.5Z" class="g3_6" />
<path fill-rule="evenodd" d="M131.8,319.7l0.5,0.5l0,128.4l-0.5,0.5l-0.3,0.5l0,-130.4l0.3,0.5Z" class="g3_6" />
<path fill-rule="evenodd" d="M131.8,449.1l0.5,0.5l0,28.4l-0.5,0.4l-0.3,0.5l0,-30.3l0.3,0.5Z" class="g3_6" />
<path fill-rule="evenodd" d="M131.8,478.4l0.5,0.5l0,262.2l-0.5,0l-0.3,0l0,-263.1l0.3,0.4Z" class="g3_6" />
<path fill-rule="evenodd" d="M469.6,252l0.5,0.5l0,37.4l-0.5,0.5l-0.3,-0.5l0,-37.4l0.3,-0.5Z" class="g3_6" />
<path fill-rule="evenodd" d="M469.6,290.4l0.5,0.4l0,28.4l-0.5,0.5l-0.3,-0.5l0,-28.4l0.3,-0.4Z" class="g3_6" />
<path fill-rule="evenodd" d="M469.6,319.7l0.5,0.5l0,128.4l-0.5,0.5l-0.3,-0.5l0,-128.4l0.3,-0.5Z" class="g3_6" />
<path fill-rule="evenodd" d="M469.6,449.1l0.5,0.5l0,28.4l-0.5,0.4L469.3,478l0,-28.4l0.3,-0.5Z" class="g3_6" />
<path fill-rule="evenodd" d="M469.6,478.4l0.5,0.5l0,128.5l-0.5,0.4l-0.3,0.5l0,-129.4l0.3,-0.5Z" class="g3_6" />
<path fill-rule="evenodd" d="M469.6,607.8l0.5,0.5l0,28.4l-0.5,0.5l-0.3,0.4l0,-30.2l0.3,0.4Z" class="g3_6" />
<path fill-rule="evenodd" d="M469.6,637.2l0.5,0.4l0,103.5l-0.5,0.4l-0.3,0.5l0,-105.3l0.3,0.5Z" class="g3_6" />
<path fill-rule="evenodd" d="M807.6,252l0.4,-0.4l0,39.2l-0.4,-0.4l-0.3,-0.5l0,-37.4l0.3,-0.5Z" class="g3_6" />
<path fill-rule="evenodd" d="M807.6,290.4l0.4,-0.5l0,30.3l-0.4,-0.5l-0.3,-0.5l0,-28.4l0.3,-0.4Z" class="g3_6" />
<path fill-rule="evenodd" d="M807.6,319.7l0.4,-0.5l0,130.4l-0.4,-0.5l-0.3,-0.5l0,-128.4l0.3,-0.5Z" class="g3_6" />
<path fill-rule="evenodd" d="M807.6,449.1l0.4,-0.5l0,30.3l-0.4,-0.5L807.3,478l0,-28.4l0.3,-0.5Z" class="g3_6" />
<path fill-rule="evenodd" d="M807.6,478.4L808,478l0,130.3l-0.4,-0.5l-0.3,-0.4l0,-128.5l0.3,-0.5Z" class="g3_6" />
<path fill-rule="evenodd" d="M807.6,607.8l0.4,-0.4l0,30.2l-0.4,-0.4l-0.3,-0.5l0,-28.4l0.3,-0.5Z" class="g3_6" />
<path fill-rule="evenodd" d="M807.6,637.2l0.4,-0.5L808,742l-0.4,-0.5l-0.3,-0.4l0,-103.5l0.3,-0.4Z" class="g3_6" />
<path fill-rule="evenodd" d="M130,83.5l671,0l0,0.8l-671,0l0,-0.8Z" class="g5_6" />
<path fill-rule="evenodd" d="M130,83.5l671,0l0,0.8l-671,0l0,-0.8Z" class="g5_6" />
</svg>